<svg xmlns="http://www.w3.org/2000/svg" viewBox="0 0 64 64">
<rect width="64" height="64" rx="14" fill="#0a0a12"/>
<g transform="translate(29.5,34.5)" opacity="0.85"><path d="M0,-5 C-7,-9 -10,-18 -5.5,-23 C-3,-25.5 -0.8,-24 0,-21.8 C0.8,-24 3,-25.5 5.5,-23 C10,-18 7,-9 0,-5 Z" fill="#22e6f7" transform="rotate(0)" /><path d="M0,-5 C-7,-9 -10,-18 -5.5,-23 C-3,-25.5 -0.8,-24 0,-21.8 C0.8,-24 3,-25.5 5.5,-23 C10,-18 7,-9 0,-5 Z" fill="#22e6f7" transform="rotate(72)" /><path d="M0,-5 C-7,-9 -10,-18 -5.5,-23 C-3,-25.5 -0.8,-24 0,-21.8 C0.8,-24 3,-25.5 5.5,-23 C10,-18 7,-9 0,-5 Z" fill="#22e6f7" transform="rotate(144)" /><path d="M0,-5 C-7,-9 -10,-18 -5.5,-23 C-3,-25.5 -0.8,-24 0,-21.8 C0.8,-24 3,-25.5 5.5,-23 C10,-18 7,-9 0,-5 Z" fill="#22e6f7" transform="rotate(216)" /><path d="M0,-5 C-7,-9 -10,-18 -5.5,-23 C-3,-25.5 -0.8,-24 0,-21.8 C0.8,-24 3,-25.5 5.5,-23 C10,-18 7,-9 0,-5 Z" fill="#22e6f7" transform="rotate(288)" /></g>
<g transform="translate(34.5,31.5)" opacity="0.55"><path d="M0,-5 C-7,-9 -10,-18 -5.5,-23 C-3,-25.5 -0.8,-24 0,-21.8 C0.8,-24 3,-25.5 5.5,-23 C10,-18 7,-9 0,-5 Z" fill="#8b5cf6" transform="rotate(0)" /><path d="M0,-5 C-7,-9 -10,-18 -5.5,-23 C-3,-25.5 -0.8,-24 0,-21.8 C0.8,-24 3,-25.5 5.5,-23 C10,-18 7,-9 0,-5 Z" fill="#8b5cf6" transform="rotate(72)" /><path d="M0,-5 C-7,-9 -10,-18 -5.5,-23 C-3,-25.5 -0.8,-24 0,-21.8 C0.8,-24 3,-25.5 5.5,-23 C10,-18 7,-9 0,-5 Z" fill="#8b5cf6" transform="rotate(144)" /><path d="M0,-5 C-7,-9 -10,-18 -5.5,-23 C-3,-25.5 -0.8,-24 0,-21.8 C0.8,-24 3,-25.5 5.5,-23 C10,-18 7,-9 0,-5 Z" fill="#8b5cf6" transform="rotate(216)" /><path d="M0,-5 C-7,-9 -10,-18 -5.5,-23 C-3,-25.5 -0.8,-24 0,-21.8 C0.8,-24 3,-25.5 5.5,-23 C10,-18 7,-9 0,-5 Z" fill="#8b5cf6" transform="rotate(288)" /></g>
<g transform="translate(32,33)"><path d="M0,-5 C-7,-9 -10,-18 -5.5,-23 C-3,-25.5 -0.8,-24 0,-21.8 C0.8,-24 3,-25.5 5.5,-23 C10,-18 7,-9 0,-5 Z" fill="#ff7ab2" transform="rotate(0)" /><path d="M0,-5 C-7,-9 -10,-18 -5.5,-23 C-3,-25.5 -0.8,-24 0,-21.8 C0.8,-24 3,-25.5 5.5,-23 C10,-18 7,-9 0,-5 Z" fill="#ff7ab2" transform="rotate(72)" /><path d="M0,-5 C-7,-9 -10,-18 -5.5,-23 C-3,-25.5 -0.8,-24 0,-21.8 C0.8,-24 3,-25.5 5.5,-23 C10,-18 7,-9 0,-5 Z" fill="#ff7ab2" transform="rotate(144)" /><path d="M0,-5 C-7,-9 -10,-18 -5.5,-23 C-3,-25.5 -0.8,-24 0,-21.8 C0.8,-24 3,-25.5 5.5,-23 C10,-18 7,-9 0,-5 Z" fill="#ff7ab2" transform="rotate(216)" /><path d="M0,-5 C-7,-9 -10,-18 -5.5,-23 C-3,-25.5 -0.8,-24 0,-21.8 C0.8,-24 3,-25.5 5.5,-23 C10,-18 7,-9 0,-5 Z" fill="#ff7ab2" transform="rotate(288)" /><circle r="3.2" fill="#ffe3ee"/></g>
</svg>